HIERARCHY
ROOT hips
{
  OFFSET 0 10.6860622 2.3727825e-15
  CHANNELS 6 Xposition Yposition Zposition Yrotation Xrotation Zrotation
  JOINT leftUpperLeg
  {
    OFFSET 0.6642549969 -0.9402397400000004 0
    CHANNELS 3 Yrotation Xrotation Zrotation
    JOINT leftLowerLeg
    {
      OFFSET 0 -3.997221335632195 0
      CHANNELS 3 Yrotation Xrotation Zrotation
      JOINT leftFoot
      {
        OFFSET -0.13777839790000004 -4.6145792000000005 -0.22186036399999998
        CHANNELS 3 Yrotation Xrotation Zrotation
        JOINT leftToes
        {
          OFFSET -0.03777410834999995 -0.9130806927000008 0.85230013
          CHANNELS 3 Yrotation Xrotation Zrotation
          End Site
          {
            OFFSET -0.03777410834999995 -0.9130806927000008 0.85230013
          }
        }
      }
    }
  }
  JOINT rightUpperLeg
  {
    OFFSET -0.6642778626 -0.9402397400000004 0
    CHANNELS 3 Yrotation Xrotation Zrotation
    JOINT rightLowerLeg
    {
      OFFSET 0 -3.997221452859387 0
      CHANNELS 3 Yrotation Xrotation Zrotation
      JOINT rightFoot
      {
        OFFSET 0.1377926176 -4.6145792000000005 -0.22185782299999995
        CHANNELS 3 Yrotation Xrotation Zrotation
        JOINT rightToes
        {
          OFFSET 0.037780746850000047 -0.9130806927000008 0.85230167
          CHANNELS 3 Yrotation Xrotation Zrotation
          End Site
          {
            OFFSET 0.037780746850000047 -0.9130806927000008 0.85230167
          }
        }
      }
    }
  }
  JOINT spine
  {
    OFFSET 0 0.13988381660000015 0
    CHANNELS 3 Yrotation Xrotation Zrotation
    JOINT chest
    {
      OFFSET 0 0.6191039003973773 0
      CHANNELS 3 Yrotation Xrotation Zrotation
      JOINT upperChest
      {
        OFFSET 0 0.9855186130586943 0
        CHANNELS 3 Yrotation Xrotation Zrotation
        JOINT leftShoulder
        {
          OFFSET 0.1807663869 1.5087829790000005 0
          CHANNELS 3 Yrotation Xrotation Zrotation
          JOINT leftUpperArm
          {
            OFFSET 0.5985063006419806 0 0
            CHANNELS 3 Yrotation Xrotation Zrotation
            JOINT leftLowerArm
            {
              OFFSET 2.2993332369501065 0 0
              CHANNELS 3 Yrotation Xrotation Zrotation
              JOINT leftHand
              {
                OFFSET 2.395047042602395 0 0
                CHANNELS 3 Yrotation Xrotation Zrotation
                JOINT leftIndexProximal
                {
                  OFFSET 0.5766295810000004 0.04556643899499946 0.17265095988184
                  CHANNELS 3 Yrotation Xrotation Zrotation
                  JOINT leftIndexIntermediate
                  {
                    OFFSET 0.2957229000000008 -0.019352197700001517 -0.007932640616999987
                    CHANNELS 3 Yrotation Xrotation Zrotation
                    JOINT leftIndexDistal
                    {
                      OFFSET 0.19008243099999922 -0.012484908149998475 -0.002786250786000012
                      CHANNELS 3 Yrotation Xrotation Zrotation
                      End Site
                      {
                        OFFSET 0.19008243099999922 -0.012484908149998475 -0.002786250786000012
                      }
                    }
                  }
                }
                JOINT leftMiddleProximal
                {
                  OFFSET 0.5834975091000001 0.0524350405149987 0.02204081888183999
                  CHANNELS 3 Yrotation Xrotation Zrotation
                  JOINT leftMiddleIntermediate
                  {
                    OFFSET 0.33880573540000003 -0.019871473270000717 -0.00000971183179999946
                    CHANNELS 3 Yrotation Xrotation Zrotation
                    JOINT leftMiddleDistal
                    {
                      OFFSET 0.20676022730000088 -0.012221336379999448 0.0001471936708000235
                      CHANNELS 3 Yrotation Xrotation Zrotation
                      End Site
                      {
                        OFFSET 0.20676022730000088 -0.012221336379999448 0.0001471936708000235
                      }
                    }
                  }
                }
                JOINT leftLittleProximal
                {
                  OFFSET 0.5344154683999995 -0.012880921405001189 -0.24414037221816004
                  CHANNELS 3 Yrotation Xrotation Zrotation
                  JOINT leftLittleIntermediate
                  {
                    OFFSET 0.21758961730000093 -0.011650919939999227 0.011893592810000034
                    CHANNELS 3 Yrotation Xrotation Zrotation
                    JOINT leftLittleDistal
                    {
                      OFFSET 0.1475273964999999 -0.008152365682999818 0.006001092492999946
                      CHANNELS 3 Yrotation Xrotation Zrotation
                      End Site
                      {
                        OFFSET 0.1475273964999999 -0.008152365682999818 0.006001092492999946
                      }
                    }
                  }
                }
                JOINT leftRingProximal
                {
                  OFFSET 0.5799399463000003 0.026911854694997794 -0.12150566991816003
                  CHANNELS 3 Yrotation Xrotation Zrotation
                  JOINT leftRingIntermediate
                  {
                    OFFSET 0.26167887460000006 -0.013480186499999602 0.010996293000000053
                    CHANNELS 3 Yrotation Xrotation Zrotation
                    JOINT leftRingDistal
                    {
                      OFFSET 0.17667108799999987 -0.008990287899999228 0.0055541023999999065
                      CHANNELS 3 Yrotation Xrotation Zrotation
                      End Site
                      {
                        OFFSET 0.17667108799999987 -0.008990287899999228 0.0055541023999999065
                      }
                    }
                  }
                }
                JOINT leftThumbProximal
                {
                  OFFSET 0.11018806699999972 -0.09448718900500053 0.17047963138184
                  CHANNELS 3 Yrotation Xrotation Zrotation
                  JOINT leftThumbIntermediate
                  {
                    OFFSET 0.31062601459999983 -0.08126270900000132 0.15443142000000007
                    CHANNELS 3 Yrotation Xrotation Zrotation
                    JOINT leftThumbDistal
                    {
                      OFFSET 0.21627175790000086 -0.08833193599999878 0.018771167799999988
                      CHANNELS 3 Yrotation Xrotation Zrotation
                      End Site
                      {
                        OFFSET 0.21627175790000086 -0.08833193599999878 0.018771167799999988
                      }
                    }
                  }
                }
              }
            }
          }
        }
        JOINT neck
        {
          OFFSET 0 1.5463305265074576 0
          CHANNELS 3 Yrotation Xrotation Zrotation
          JOINT head
          {
            OFFSET 0 0.8456443600000344 0
            CHANNELS 3 Yrotation Xrotation Zrotation
            JOINT leftEye
            {
              OFFSET 0.30408573140000006 0.5104519199999995 0.1276382305
              CHANNELS 3 Yrotation Xrotation Zrotation
              End Site
              {
                OFFSET 0.30408573140000006 0.5104519199999995 0.1276382305
              }
            }
            JOINT rightEye
            {
              OFFSET -0.30409491089999996 0.5104519199999995 0.1276379445
              CHANNELS 3 Yrotation Xrotation Zrotation
              End Site
              {
                OFFSET -0.30409491089999996 0.5104519199999995 0.1276379445
              }
            }
            JOINT jaw
            {
              OFFSET -3.155239131000001e-7 -0.11984121820000082 0.60178107
              CHANNELS 3 Yrotation Xrotation Zrotation
              End Site
              {
                OFFSET -3.155239131000001e-7 -0.11984121820000082 0.60178107
              }
            }
          }
        }
        JOINT rightShoulder
        {
          OFFSET -0.1807303465 1.5087829790000005 0
          CHANNELS 3 Yrotation Xrotation Zrotation
          JOINT rightUpperArm
          {
            OFFSET -0.5985063796536958 0 0
            CHANNELS 3 Yrotation Xrotation Zrotation
            JOINT rightLowerArm
            {
              OFFSET -2.2993322059002854 0 0
              CHANNELS 3 Yrotation Xrotation Zrotation
              JOINT rightHand
              {
                OFFSET -2.395045314457259 0 0
                CHANNELS 3 Yrotation Xrotation Zrotation
                JOINT rightIndexProximal
                {
                  OFFSET -0.5764487688300002 0.0441371204405987 0.17361932004999997
                  CHANNELS 3 Yrotation Xrotation Zrotation
                  JOINT rightIndexIntermediate
                  {
                    OFFSET -0.29573011380000047 -0.01934826376999843 -0.007698921482999974
                    CHANNELS 3 Yrotation Xrotation Zrotation
                    JOINT rightIndexDistal
                    {
                      OFFSET -0.19008373999999884 -0.012503266380000655 -0.0026365778999999897
                      CHANNELS 3 Yrotation Xrotation Zrotation
                      End Site
                      {
                        OFFSET -0.19008373999999884 -0.012503266380000655 -0.0026365778999999897
                      }
                    }
                  }
                }
                JOINT rightMiddleProximal
                {
                  OFFSET -0.5834852037300005 0.05211639405060153 0.02307162440000001
                  CHANNELS 3 Yrotation Xrotation Zrotation
                  JOINT rightMiddleIntermediate
                  {
                    OFFSET -0.33880114510000003 -0.019952774050000954 0.0002455003561999819
                    CHANNELS 3 Yrotation Xrotation Zrotation
                    JOINT rightMiddleDistal
                    {
                      OFFSET -0.20675694929999955 -0.012273788999999091 0.00030209124000002766
                      CHANNELS 3 Yrotation Xrotation Zrotation
                      End Site
                      {
                        OFFSET -0.20675694929999955 -0.012273788999999091 0.00030209124000002766
                      }
                    }
                  }
                }
                JOINT rightLittleProximal
                {
                  OFFSET -0.5346811737299992 -0.011214256288399227 -0.24363941305000003
                  CHANNELS 3 Yrotation Xrotation Zrotation
                  JOINT rightLittleIntermediate
                  {
                    OFFSET -0.21757715980000092 -0.011771559690000988 0.01201554387
                    CHANNELS 3 Yrotation Xrotation Zrotation
                    JOINT rightLittleDistal
                    {
                      OFFSET -0.1475201849000004 -0.00822055339600003 0.006082065407000015
                      CHANNELS 3 Yrotation Xrotation Zrotation
                      End Site
                      {
                        OFFSET -0.1475201849000004 -0.00822055339600003 0.006082065407000015
                      }
                    }
                  }
                }
                JOINT rightRingProximal
                {
                  OFFSET -0.5800810755299999 0.027657985680600072 -0.12066365025000003
                  CHANNELS 3 Yrotation Xrotation Zrotation
                  JOINT rightRingIntermediate
                  {
                    OFFSET -0.26166445029999974 -0.013623118409999302 0.011164098990000045
                    CHANNELS 3 Yrotation Xrotation Zrotation
                    JOINT rightRingDistal
                    {
                      OFFSET -0.17666387530000027 -0.009072900100000503 0.005668185599999959
                      CHANNELS 3 Yrotation Xrotation Zrotation
                      End Site
                      {
                        OFFSET -0.17666387530000027 -0.009072900100000503 0.005668185599999959
                      }
                    }
                  }
                }
                JOINT rightThumbProximal
                {
                  OFFSET -0.10997596379000074 -0.09577489355940072 0.16989765924999997
                  CHANNELS 3 Yrotation Xrotation Zrotation
                  JOINT rightThumbIntermediate
                  {
                    OFFSET -0.31036620999999986 -0.08229339117999834 0.15440884469999996
                    CHANNELS 3 Yrotation Xrotation Zrotation
                    JOINT rightThumbDistal
                    {
                      OFFSET -0.21631306399999906 -0.08825326400000111 0.018656797720000014
                      CHANNELS 3 Yrotation Xrotation Zrotation
                      End Site
                      {
                        OFFSET -0.21631306399999906 -0.08825326400000111 0.018656797720000014
                      }
                    }
                  }
                }
              }
            }
          }
        }
      }
    }
  }
}
MOTION
Frames: 7
Frame Time: 0.03333333333333333
0 11.682712981546562 0 0 0 0 0 0 -5.826343164929014 -0.3712483961610101 -3.6333298826370974 5.838118207697276 0 0 0 0 0 0 0 0 5.826343164929014 0.3712483961610101 -3.6333298826370974 -5.838118207697276 0 0 0 0 0 0 0 -4.610651315171937 0 0 3.0831277533083026 0 0 0 0 0 1.5275236235667615 0 0 0 0 0 0 0 0 0 0 0 0 0 0 0 0 0 0 0 0 0 0 0 0 0 0 0 0 0 0 0 0 0 0 0 0 0 0 0 0 0 0 0 0 0 0 0 0 0 0 0 0 0 0 0 0 1.5275236235667615 0 0 0 0 0 0 0 0 0 0 0 0 0 0 1.5275236235667615 0 0 0 0 0 0 0 0 0 0 0 0 0 0 0 0 0 0 0 0 0 0 0 0 0 0 0 0 0 0 0 0 0 0 0 0 0 0 0 0 0 0 0 0 0 0 0 0 0 0 0 0 0 0 0
0.33456492258113263 -9.55243011412824 -0.012092413783695287 -2.9616860500771853 -47.97299145965387 2.633204329055878 9.587723225612724 -43.292564467929395 24.586381218198493 28.64397785977125 0.6356516278408388 19.90073280299012 -17.319392684343775 30.068019572091558 -33.23815901844712 0 0 0 59.21834046663101 -59.691921310228814 -74.47490641834898 -147.5257493630564 80.59531205961366 -154.42081428538043 11.950649445787228 23.481723108840665 30.505424941562783 0 0 0 -3.1029613720313225e-16 18.470410638691902 -5.0452690821789175e-17 -2.778804057661605 12.120365233725666 2.6991588803374325 0 0 0 1.3453140339178058 8.388505364148482 11.119002963460035 -39.63233902067664 22.907410829429512 -110.01473197738925 -6.614832785513563 -52.654294535737634 5.836991446587926 -8.395861230309283 15.981011763859309 61.81665626958093 0 0 0 0 0 0 0 0 0 0 0 0 0 0 0 0 0 0 0 0 0 0 0 0 0 0 0 0 0 0 0 0 0 0 0 0 0 0 0 0 0 0 0 0 0 2.198933779008475 39.73251344846196 2.413536232432113 3.5696118198749596 13.571780264270881 -10.537466865727822 0 0 0 0 0 0 0 0 0 -1.3490389000057241 8.388129093532974 -11.122849531082482 39.62947330548984 22.912137955406205 110.00965616089893 6.6122242573576875 -52.654266387325784 -5.839587423999296 8.392178108010318 15.979493125640749 -61.82115356822218 0 0 0 0 0 0 0 0 0 0 0 0 0 0 0 0 0 0 0 0 0 0 0 0 0 0 0 0 0 0 0 0 0 0 0 0 0 0 0 0 0 0 0 0 0
0.33456492258113263 -9.55243011412824 -0.012092413783695287 -2.9616860500771853 -47.97299145965387 2.633204329055878 9.587723225612724 -43.292564467929395 24.586381218198493 28.64397785977125 0.6356516278408388 19.90073280299012 -17.319392684343775 30.068019572091558 -33.23815901844712 0 0 0 59.26340253707889 -60.09758167241348 -75.2897607916603 -147.5257493630564 80.59531205961366 -154.42081428538043 11.950649445787228 23.481723108840665 30.505424941562783 0 0 0 -3.1029613720313225e-16 18.470410638691902 -5.0452690821789175e-17 -2.778804057661605 12.120365233725666 2.6991588803374325 0 0 0 1.3453140339178058 8.388505364148482 11.119002963460035 -39.63233902067664 22.907410829429512 -110.01473197738925 -6.614832785513563 -52.654294535737634 5.836991446587926 -8.395861230309283 15.981011763859309 61.81665626958093 0 0 0 0 0 0 0 0 0 0 0 0 0 0 0 0 0 0 0 0 0 0 0 0 0 0 0 0 0 0 0 0 0 0 0 0 0 0 0 0 0 0 0 0 0 2.5202072247880825 39.483676308467686 2.5726941665617384 3.5589531901315605 13.30551784288357 -10.549869110901247 0 0 0 0 0 0 0 0 0 -1.3490390078515184 8.388129093532974 -11.122850377877189 39.62947330548984 22.912137955406205 110.00965616089893 6.6122242573576875 -52.654266387325784 -5.839587423999296 8.392178108010318 15.979493125640749 -61.82115356822218 0 0 0 0 0 0 0 0 0 0 0 0 0 0 0 0 0 0 0 0 0 0 0 0 0 0 0 0 0 0 0 0 0 0 0 0 0 0 0 0 0 0 0 0 0
0.33456492258113263 -9.55243011412824 -0.012092413783695287 -2.9616865772070575 -47.9730016618724 2.633204957006663 9.58772458539503 -43.292569159884565 24.586381037075625 28.64397785977125 0.6356516278408388 19.90073280299012 -17.319392684343775 30.068019572091558 -33.23815901844712 0 0 0 59.320930645087785 -60.50399838190749 -76.11777600481386 -147.52575156697836 80.59531205961366 -154.42081664175427 11.950649445787228 23.481723108840665 30.505426545586953 0 0 0 -6.138813931871645e-17 18.470410638691902 2.417625642616632e-16 -2.778804057661605 12.120365233725666 2.6991588803374325 0 0 0 1.3453140339178058 8.388505364148482 11.119002963460035 -39.63234187600858 22.90740897568695 -110.01474068631465 -6.614834133047288 -52.65430016542218 5.836992019118987 -8.395861230309283 15.981011763859309 61.81665626958093 0 0 0 0 0 0 0 0 0 0 0 0 0 0 0 0 0 0 0 0 0 0 0 0 0 0 0 0 0 0 0 0 0 0 0 0 0 0 0 0 0 0 0 0 0 2.839656019331361 39.23400240579573 2.7295861531626517 3.54836264443469 13.039153362337773 -10.562215073135045 0 0 0 0 0 0 0 0 0 -1.3490389000057241 8.388129093532974 -11.122849531082482 39.62947330548984 22.912137955406205 110.00965616089893 6.6122242573576875 -52.654266387325784 -5.839587423999296 8.392178108010318 15.979493125640749 -61.82115356822218 0 0 0 0 0 0 0 0 0 0 0 0 0 0 0 0 0 0 0 0 0 0 0 0 0 0 0 0 0 0 0 0 0 0 0 0 0 0 0 0 0 0 0 0 0
0.33456492258113263 -9.55243011412824 -0.012092413783695287 -2.9616860500771853 -47.97299145965387 2.633204329055878 9.587723225612724 -43.292564467929395 24.586381218198493 28.64397785977125 0.6356516278408388 19.90073280299012 -17.319392684343775 30.068019572091558 -33.23816283166143 0 0 0 59.39145859183127 -60.91105244544656 -76.95939826310631 -147.52575156697836 80.59531205961366 -154.42081664175427 11.950649445787228 23.481723108840665 30.505424941562783 0 0 0 -3.1029613720313225e-16 18.470410638691902 -5.0452690821789175e-17 -2.778804057661605 12.120365233725666 2.6991588803374325 0 0 0 1.3453141417638714 8.388505364148482 11.119003810266747 -39.63233902067664 22.907410829429512 -110.01473197738925 -6.614834082529098 -52.65430579510744 5.8369925916501595 -8.395857715996922 15.98101354005111 61.81667214998676 0 0 0 0 0 0 0 0 0 0 0 0 0 0 0 0 0 0 0 0 0 0 0 0 0 0 0 0 0 0 0 0 0 0 0 0 0 0 0 0 0 0 0 0 0 3.1572981103793714 38.98349594891466 2.884229048767065 3.537839285294846 12.77269191288736 -10.574501418223281 0 0 0 0 0 0 0 0 0 -1.3490390078515184 8.388129093532974 -11.122850377877189 39.62947330548984 22.912137955406205 110.00965616089893 6.612224905610367 -52.654272017006704 -5.839587996783715 8.392179865169746 15.979494901819065 -61.82115189070925 0 0 0 0 0 0 0 0 0 0 0 0 0 0 0 0 0 0 0 0 0 0 0 0 0 0 0 0 0 0 0 0 0 0 0 0 0 0 0 0 0 0 0 0 0
0.33456492258113263 -9.55243011412824 -0.012092413783695287 -2.9616860500771853 -47.97299145965387 2.633204329055878 9.587724788573265 -43.292573851840096 24.586378903795847 28.64397785977125 0.6356512009277435 19.900734408667944 -17.319392684343775 30.068023518210683 -33.23816448192727 0 0 0 59.47554879560422 -61.31858313654869 -77.81513514840239 -147.5257493630564 80.59531205961366 -154.42081428538043 11.950650356472849 23.481723108840665 30.505426545586953 0 0 0 -3.1029613720313225e-16 18.470410638691902 -5.0452690821789175e-17 -2.778804057661605 12.120365233725666 2.6991588803374325 0 0 0 1.3453140339178058 8.388505364148482 11.119002963460035 -39.63233902067664 22.907410829429512 -110.01473197738925 -6.614834082529098 -52.65430579510744 5.8369925916501595 -8.395858594575019 15.981011763859309 61.81666420978382 0 0 0 0 0 0 0 0 0 0 0 0 0 0 0 0 0 0 0 0 0 0 0 0 0 0 0 0 0 0 0 0 0 0 0 0 0 0 0 0 0 0 0 0 0 3.473150618706218 38.73216538266351 3.036639132906479 3.5273796098398438 12.506129799043352 -10.586726538691419 0 0 0 0 0 0 0 0 0 -1.3490389000057241 8.388129093532974 -11.122849531082482 39.62947330548984 22.912137955406205 110.00965616089893 6.612224905610367 -52.654272017006704 -5.839587996783715 8.392177229430597 15.9794966779974 -61.821159830869775 0 0 0 0 0 0 0 0 0 0 0 0 0 0 0 0 0 0 0 0 0 0 0 0 0 0 0 0 0 0 0 0 0 0 0 0 0 0 0 0 0 0 0 0 0
0.33456492258113263 -9.55243011412824 -0.012092413783695287 -2.9616863136420983 -47.97299656076289 2.633204722651914 9.58772400709293 -43.292564467929395 24.586383351478 28.64397785977125 0.6356516278408388 19.90073280299012 -17.319392684343775 30.068019572091558 -33.23815901844712 0 0 0 59.573890309025884 -61.72645003764517 -78.68559984440144 -147.5257493630564 80.59531205961366 -154.42081428538043 11.950650356472849 23.481724970562304 30.505426545586953 0 0 0 1.9845531643161467e-16 18.470412438976556 -1.808089305016591e-17 -2.778804057661605 12.120365233725666 2.6991588803374325 0 0 0 1.3453143574560027 8.388506227154899 11.119003810266747 -39.63233902067664 22.907410829429512 -110.01473197738925 -6.614832785513563 -52.654294535737634 5.836991446587926 -8.395858594575019 15.981011763859309 61.81666420978382 0 0 0 0 0 0 0 0 0 0 0 0 0 0 0 0 0 0 0 0 0 0 0 0 0 0 0 0 0 0 0 0 0 0 0 0 0 0 0 0 0 0 0 0 0 3.7872342944902218 38.48003640058298 3.1868345033934817 3.5169866741757776 12.239474679087989 -10.598895907104643 0 0 0 0 0 0 0 0 0 -1.3490392235431072 8.388129956538556 -11.122850377877189 39.62947330548984 22.912137955406205 110.00965616089893 6.6122242573576875 -52.654266387325784 -5.839587423999296 8.392178108010318 15.979493125640749 -61.82115356822218 0 0 0 0 0 0 0 0 0 0 0 0 0 0 0 0 0 0 0 0 0 0 0 0 0 0 0 0 0 0 0 0 0 0 0 0 0 0 0 0 0 0 0 0 0
